<svg xmlns="http://www.w3.org/2000/svg" xmlns:xlink="http://www.w3.org/1999/xlink" xmlns:fi="http://pattern.flaticon.com/" x="0" y="0" width="1920" height="1080" viewBox="0 0 1920 1080"><rect x="0px" y="0px" width="100%" height="100%" opacity="1" fill="#f1faee"/><defs><g transform="matrix(0.12499817460775375 0 0 0.12499817460775375 113 269.0000005798255)" id="L1_1"><path d="M479.426,267.581c-3.547-24.574-22.852-43.879-47.426-47.426v-14.544c0-40.128-30.504-72.8-68-72.8    c-36.416,0-66.904,31.68-68,70.624h0.464l-0.464,0.08v157.656c0,50.4-37.68,91.328-84,91.328s-84-40.984-84-91.328v-13.656    c11.6,0,24-8.408,24-32v-20.12c51.344-13.128,88-57.216,88-107.2v-16.68h-16l-0.336-104.12    c-0.116-19.273-13.946-35.729-32.912-39.16c-4.091-12.533-17.568-19.377-30.102-15.285c-12.533,4.091-19.377,17.568-15.285,30.102    c4.091,12.533,17.568,19.377,30.102,15.285c6.711-2.191,12.108-7.24,14.741-13.79c10.249,2.916,17.349,12.24,17.432,22.896    L208,171.515h-16v16.912c-0.638,27.827-19.294,52.009-46.048,59.688c-14.315,4.542-29.685,4.542-44,0    C75.229,240.41,56.615,216.232,56,188.427v-16.912H32v-104c0.046-10.813,7.318-20.261,17.76-23.072    c4.869,12.395,18.864,18.495,31.259,13.626S99.514,39.204,94.645,26.81S75.78,8.315,63.386,13.184    c-6.716,2.639-11.898,8.146-14.122,15.011C30.091,31.471,16.053,48.064,16,67.515v104H0v16.64c0,50.04,36.68,94.144,88,107.24    v20.12c0,23.592,12.4,32,24,32v13.656c0,59.2,44.856,107.328,100,107.328s100-48.184,100-107.328V203.899    c0.8-30.36,24.144-55.064,52-55.064c28.672,0,52,25.472,52,56.8v14.52c-30.611,4.418-51.844,32.815-47.426,63.426    s32.815,51.844,63.426,47.426S483.844,298.191,479.426,267.581z M168,43.515c-4.418,0-8-3.582-8-8s3.582-8,8-8s8,3.582,8,8    S172.418,43.515,168,43.515z M72,27.515c4.418,0,8,3.582,8,8s-3.582,8-8,8s-8-3.582-8-8S67.582,27.515,72,27.515z M16,188.155    v-0.64h24v0.912c0.6,34.771,23.733,65.116,57.104,74.904c17.487,5.537,36.257,5.537,53.744,0    c33.387-9.775,56.541-40.121,57.152-74.904v-0.912h16v0.64c0,44.504-34.304,83.664-81.6,93.136    c-11.106,2.224-22.482,2.782-33.752,1.656c-3.71-0.36-7.398-0.918-11.048-1.672C50.304,271.819,16,232.659,16,188.155z     M112,331.515c-7.2,0-8-11.2-8-16v-16.976c0.64,0.08,1.296,0.112,1.944,0.176c0.8,0.088,1.6,0.152,2.4,0.224    c3.784,0.336,7.6,0.56,11.448,0.568h0.4c3.84,0,7.648-0.232,11.408-0.568c0.8-0.072,1.648-0.136,2.472-0.224    c0.632-0.072,1.288-0.096,1.92-0.176v16.976c0,4.8-0.8,16-8,16H112z M424,315.515c-22.091,0-40-17.909-40-40    c0-22.091,17.909-40,40-40c22.091,0,40,17.909,40,40C463.974,297.596,446.08,315.489,424,315.515z" fill="#a7dadb"/><path d="M424,251.515c-13.255,0-24,10.745-24,24s10.745,24,24,24s24-10.745,24-24S437.255,251.515,424,251.515z M424,283.515    c-4.418,0-8-3.582-8-8s3.582-8,8-8s8,3.582,8,8S428.418,283.515,424,283.515z" fill="#a7dadb"/></g><path d="M482.726,485.783l-22.65-132.603c-2.441-14.287-12.576-25.764-26.453-29.95l-61.092-18.433    c-1.265-14.934-7.388-29.023-17.578-40.175c-8.151-8.92-18.403-15.415-29.704-18.999c1.934-2.146,3.727-4.285,5.372-6.377    c14.528-18.477,22.306-38.833,24.286-52.724h4.713c12.258,0,22.231-9.972,22.231-22.231v-11.396    c0-8.181-4.602-15.594-11.523-19.441V106.05c0-4.141-3.357-7.498-7.498-7.498s-7.497,3.356-7.497,7.498v30.764    c-2.92,0.507-6.404,1.383-9.968,2.884c-0.365,0.133-0.72,0.287-1.056,0.472c-0.805,0.367-1.611,0.754-2.414,1.19V80.938    c0-16.693-13.58-30.273-30.273-30.273h-20.695c-7.138,0-14.111,2.487-19.637,7.005l-2.031,1.66c-3.73,3.05-8.438,4.73-13.257,4.73    c-4.819,0-9.528-1.68-13.258-4.73l-2.03-1.66c-5.526-4.517-12.499-7.005-19.637-7.005H200.38    c-16.693,0-30.273,13.58-30.273,30.273v60.422c-0.803-0.436-1.609-0.823-2.414-1.19c-0.336-0.185-0.69-0.339-1.055-0.472    c-3.564-1.501-7.049-2.377-9.968-2.884V59.025c0-24.278,19.752-44.03,44.03-44.03h110.601c24.279,0,44.03,19.752,44.03,44.03    v11.786c0,4.141,3.357,7.498,7.497,7.498s7.498-3.356,7.498-7.498V59.025C370.326,26.479,343.847,0,311.301,0H200.7    c-32.547,0-59.025,26.479-59.025,59.025v74.43c-6.921,3.847-11.523,11.259-11.523,19.441v11.396    c0,12.259,9.973,22.231,22.231,22.231h4.713c1.979,13.891,9.758,34.247,24.286,52.724c1.643,2.09,3.435,4.227,5.367,6.371    c-25.98,8.252-44.926,31.61-47.277,59.179L78.378,323.23c-13.877,4.186-24.013,15.663-26.453,29.95l-9.198,53.849    c-0.697,4.082,2.047,7.955,6.128,8.652c4.08,0.699,7.955-2.046,8.653-6.128l9.198-53.849c1.476-8.644,7.608-15.586,16.003-18.118    l56.505-17.049v14.831c-12.952,2.384-23.973,11.281-28.512,23.608c-1.205,3.272-1.954,6.698-2.226,10.182l-5.461,70.095    c-0.412,5.28,1.415,10.538,5.01,14.423c3.595,3.886,8.694,6.116,13.989,6.116h9.348c4.141,0,7.498-3.356,7.498-7.498    c0-4.142-3.357-7.497-7.498-7.497h-9.348c-1.129,0-2.215-0.474-2.982-1.304c-0.766-0.828-1.155-1.948-1.067-3.073l5.461-70.096    c0.165-2.111,0.618-4.186,1.348-6.167c3.158-8.575,11.686-14.382,21.223-14.449l1.235-0.009c0.058-0.001,0.115-0.001,0.172-0.001    c9.269,0,17.474,5.256,20.935,13.427c0.971,2.291,1.561,4.713,1.755,7.199l5.463,70.097c0.087,1.124-0.302,2.244-1.068,3.073    c-0.766,0.828-1.853,1.303-2.982,1.303h-9.348c-4.141,0-7.498,3.356-7.498,7.497c0,4.141,3.357,7.498,7.498,7.498h9.348    c5.295,0,10.395-2.229,13.989-6.116c3.596-3.887,5.423-9.144,5.011-14.422l-5.463-70.096c-0.32-4.102-1.295-8.101-2.898-11.884    c-4.939-11.657-15.5-19.762-27.938-21.955v-19.306l25.774-7.777c2.345,4.939,6.992,15.612,16.197,38.619    c9.277,23.214,20.808,52.969,31.867,81.895c0.079,0.243,0.17,0.48,0.272,0.712c7.38,19.311,14.539,38.225,20.662,54.541    c1.098,2.926,3.895,4.864,7.02,4.864c3.125,0,5.922-1.938,7.02-4.864c6.122-16.316,13.281-35.23,20.662-54.541    c0.103-0.232,0.193-0.47,0.272-0.712c11.051-28.909,22.576-58.645,31.849-81.852c9.217-23.037,13.868-33.719,16.214-38.662    l25.774,7.777v44.285c-17.858,3.469-31.385,19.219-31.385,38.077c0,21.391,17.403,38.795,38.795,38.795    c21.392,0,38.795-17.403,38.795-38.795c0-18.796-13.438-34.508-31.21-38.045v-39.792l56.506,17.049    c8.395,2.532,14.526,9.474,16.003,18.118l22.65,132.603c0.376,2.199-0.209,4.349-1.648,6.054c-1.438,1.704-3.459,2.644-5.69,2.644    H51.393c-2.231,0-4.251-0.939-5.69-2.644c-1.438-1.705-2.024-3.854-1.648-6.054l7.475-43.762c0.697-4.082-2.047-7.955-6.128-8.652    c-4.08-0.7-7.955,2.047-8.653,6.128l-7.475,43.762c-1.115,6.532,0.696,13.183,4.968,18.248C38.516,509.096,44.767,512,51.393,512    h409.214c6.626,0,12.878-2.904,17.151-7.969C482.03,498.966,483.841,492.315,482.726,485.783z M355.421,152.089    c3.995-0.996,7.202-0.978,7.238-0.977c1.292,0.017,2.548-0.285,3.664-0.87c0.334,0.831,0.531,1.724,0.531,2.654v11.396    c0,3.99-3.246,7.236-7.236,7.236h-4.197V152.089z M156.579,171.528L156.579,171.528h-4.197c-3.99,0-7.236-3.246-7.236-7.236    v-11.396c0-0.93,0.198-1.823,0.531-2.653c1.115,0.585,2.371,0.887,3.664,0.869c0.057,0.01,3.255-0.008,7.238,0.981V171.528z     M171.574,179.935v-19.698c2.272,0.681,4.757,0.588,7.051-0.369c3.935-1.642,6.477-5.455,6.477-9.716V80.938    c0-8.424,6.854-15.278,15.278-15.278h20.695c3.688,0,7.291,1.285,10.146,3.619l2.03,1.66c6.401,5.234,14.48,8.115,22.749,8.115    c8.269,0,16.348-2.882,22.749-8.115l2.03-1.66c2.854-2.334,6.458-3.619,10.146-3.619h20.695c8.424,0,15.278,6.854,15.278,15.278    v69.215c0,4.26,2.542,8.074,6.477,9.716c1.314,0.548,2.69,0.814,4.054,0.814c1.017,0,2.026-0.149,2.997-0.439v19.691    c0,10.947-7.568,32.205-21.594,50.043c-4.646,5.909-10.618,12.257-17.971,17.805c-0.233,0.156-0.456,0.325-0.669,0.505    c-11.391,8.422-26.038,14.874-44.192,14.874s-32.801-6.452-44.193-14.875c-0.213-0.179-0.435-0.348-0.667-0.503    c-7.353-5.549-13.325-11.897-17.972-17.806C179.143,212.141,171.574,190.882,171.574,179.935z M305.12,301.07L256,337.784    l-49.12-36.714c4.871-6.191,7.6-14.138,7.6-21.23v-12.086c11.551,6.212,25.334,10.404,41.52,10.404s29.97-4.192,41.52-10.404    v12.086C297.52,286.932,300.249,294.879,305.12,301.07z M194.367,292.701c-4.004-1.525-8.443-1.775-12.642-0.636    c-0.184,0.043-0.364,0.092-0.539,0.144l-25.903,7.816c4.381-21.542,21.873-38.688,44.202-42.009v21.824    C199.485,284.544,197.385,289.407,194.367,292.701z M214.716,352.889c-0.014-0.035-0.028-0.07-0.041-0.104    c-0.38-0.961-0.755-1.909-1.127-2.846c-0.067-0.17-0.134-0.339-0.201-0.507c-0.364-0.917-0.725-1.827-1.081-2.722    c-0.025-0.063-0.05-0.125-0.075-0.189c-1.111-2.793-2.182-5.472-3.212-8.039c-0.075-0.186-0.15-0.375-0.225-0.56    c-0.296-0.736-0.587-1.461-0.876-2.177c-0.106-0.263-0.211-0.523-0.316-0.783c-0.28-0.694-0.558-1.384-0.832-2.059    c-0.082-0.202-0.162-0.398-0.243-0.599c-0.497-1.226-0.983-2.421-1.457-3.586c-0.128-0.315-0.259-0.636-0.386-0.947    c-0.186-0.454-0.367-0.896-0.549-1.341c-0.196-0.48-0.392-0.956-0.584-1.424c-0.072-0.175-0.147-0.36-0.219-0.534    c-0.058-0.14-0.111-0.269-0.168-0.408c-0.866-2.104-1.689-4.087-2.47-5.952c-0.006-0.015-0.013-0.03-0.019-0.045    c-0.416-0.993-0.823-1.963-1.214-2.887c-0.203-0.479-0.403-0.95-0.599-1.412l42.245,31.574l-17.652,7.499    c-0.031,0.013-0.063,0.026-0.094,0.04l-7.37,3.131C215.533,354.955,215.124,353.919,214.716,352.889z M232.606,398.797    c-1.481-3.843-2.973-7.708-4.468-11.569c-2.338-6.039-4.571-11.781-6.708-17.251l2.798-1.189l11.432,13.289L232.606,398.797z     M256.145,459.735c-0.215-0.446-0.471-0.867-0.767-1.259c-3.388-8.955-7.688-20.286-12.447-32.753l7-38.325h12.138l7,38.325    C264.082,438.784,259.603,450.594,256.145,459.735z M264.881,372.404h-17.762l-8.405-9.77L256,355.291l17.286,7.343    L264.881,372.404z M283.862,387.228c-1.495,3.861-2.987,7.726-4.468,11.569l-3.054-16.721l11.432-13.289l2.798,1.189    C288.433,375.446,286.2,381.189,283.862,387.228z M312.58,315.18c-0.371,0.876-0.757,1.795-1.15,2.733    c-0.051,0.122-0.103,0.245-0.154,0.368c-0.389,0.93-0.785,1.88-1.195,2.869c-0.027,0.065-0.055,0.134-0.082,0.2    c-0.354,0.853-0.717,1.733-1.086,2.63c-0.069,0.168-0.134,0.323-0.203,0.492c-0.082,0.201-0.17,0.414-0.253,0.617    c-0.164,0.4-0.331,0.808-0.499,1.216c-0.206,0.503-0.411,1.004-0.622,1.519c-0.067,0.164-0.136,0.335-0.204,0.5    c-0.522,1.279-1.058,2.597-1.606,3.951c-0.086,0.212-0.171,0.42-0.257,0.635c-0.271,0.669-0.547,1.352-0.824,2.039    c-0.108,0.269-0.217,0.537-0.326,0.809c-0.286,0.709-0.575,1.427-0.867,2.155c-0.082,0.203-0.165,0.411-0.247,0.615    c-1.017,2.532-2.072,5.173-3.167,7.925c-0.036,0.091-0.072,0.18-0.108,0.272c-0.354,0.889-0.712,1.793-1.074,2.704    c-0.067,0.17-0.135,0.34-0.203,0.511c-0.374,0.942-0.751,1.894-1.133,2.861c-0.007,0.018-0.014,0.036-0.021,0.053    c-0.412,1.042-0.826,2.09-1.248,3.16l-7.377-3.134c-0.026-0.011-0.052-0.022-0.077-0.033l-17.662-7.503l42.245-31.574    C312.982,314.23,312.782,314.7,312.58,315.18z M330.814,292.21c-0.001,0-0.003-0.001-0.004-0.001    c-0.006-0.002-0.013-0.003-0.019-0.006c-4.35-1.305-8.99-1.089-13.157,0.498c-3.019-3.294-5.118-8.157-5.118-12.861v-21.835    c22.469,3.312,39.908,20.297,44.232,42.029L330.814,292.21z M389.001,398.375c0,13.124-10.677,23.8-23.8,23.8    s-23.8-10.676-23.8-23.8c0-13.124,10.677-23.8,23.8-23.8S389.001,385.251,389.001,398.375z" transform="matrix(0.1171875 0 0 0.1171875 197 185)" id="L1_2" fill="#a7dadb"/><g transform="matrix(0.12930616736412048 0 0 0.12930616736412048 63.99999853204656 31)" id="L1_3"><path d="M154.726,236.863c5.713-1.183,11.682-3.775,17.313-7.84c16.191-11.712,23.377-30.943,16.034-42.975    c-7.984-13.088-29.824-12.208-46.607,2.687c-16.049,13.857-19.473,28.336-19.473,43.553c0,10.752,3.439,29.951,24.447,46.624    c9.919-7.664,21.744-13.969,35.167-18.528l0.178-0.065C171.471,256.021,158.027,247.538,154.726,236.863z M152.136,199.855    c0-4.496,3.582-8.111,8-8.111c4.414,0,8,3.632,8,8.128c0,4.496-3.586,8.111-8,8.111    C155.719,207.983,152.136,204.351,152.136,199.855z" fill="#a7dadb"/><path d="M342.311,232.304c-0.048-15.233-3.456-29.712-19.519-43.569c-16.77-14.88-38.625-15.792-46.61-2.687    c-7.328,12.032-0.16,31.264,16.031,42.975c5.633,4.065,11.602,6.656,17.313,7.84c-1.984,6.416-8.016,12.944-17.215,18.448    c-12.65,7.55-19.483,8.484-100.418,35.36c-29.951,10.176-47.774,30.399-47.774,54.096c0,16.88,8.623,29.904,20.606,39.441    c7.537-7.761,16.946-14.496,27.938-19.889c-12.656-6.399-16.561-11.248-16.561-19.552c0-13.706,27.396-21.542,40.034-25.712    v34.689l32-14.273v-20.4c12.658,4.192,39.984,12.018,39.984,25.696c0,22.755-65.158,36.174-92.881,55.296    c-13.455,9.328-20.69,21.185-20.69,35.12c0,8,0.93,17.92,14.977,27.776c3.983,3.182,9.517-1.466,6.93-5.937    c-9.282-18.576,0.574-27.855,19.711-35.888v26.848c0,8.832,7.168,16,16,16c8.832,0,16-7.168,16-16V421.15    c18.383,7.712,29.953,18.608,19.664,35.872c-2.55,4.385,2.88,9.158,6.912,5.937c13.6-10.305,14.672-19.137,14.672-27.568    c0-12.975-7.103-25.567-20.576-35.216c27.233-9.84,51.328-26.4,51.328-55.376c0-20.016-12.718-37.552-34.703-48.656    c10.27-3.696,15.438-6.176,22.302-10.271C337.831,267.903,342.311,244.592,342.311,232.304z M304.136,207.983    c-4.418,0-8-3.632-8-8.128c0-4.496,3.582-8.128,8-8.128c4.414,0,8,3.632,8,8.128C312.136,204.351,308.551,207.983,304.136,207.983    z" fill="#a7dadb"/><path d="M456.007,32.031H346.431c-21.496,0-37.627,9.502-51.504,23.38C279.851,70.487,272.012,104,248.007,104V59.562    c9.526-5.543,16-15.746,16-27.562c0-17.673-14.326-32-32-32c-17.674,0-32,14.327-32,32c0,11.815,6.474,22.018,16,27.562v190.685    c9.875-3.15,20.713-6.621,32-10.246v-80.145c6.942-3.483,12.543-9.114,15.978-16.083c5.565,9.512,16.145,16.258,27.938,16.258    c11.961,0,22.266-6.641,27.756-16.36c18.744,18.745,53.584,19.106,72.328,0.362l-27.19-27.19l12.473,5.167    c24.492,10.145,52.57-1.486,62.717-25.978l-38.627-16C438.8,80.031,456.007,56.55,456.007,32.031z" fill="#a7dadb"/><path d="M169.087,55.411c-13.877-13.878-30.008-23.38-51.504-23.38H8.007c0,24.518,17.207,48,54.627,48l-38.627,16    c10.146,24.492,38.225,36.122,62.717,25.978l12.473-5.167l-27.19,27.19c18.744,18.745,53.584,18.384,72.328-0.362    c5.49,9.72,15.795,16.361,27.756,16.361c0.118,0,0.236-0.001,0.354-0.002c15.634-0.178,27.584-14.3,27.584-29.934v-32.19    C187.418,87.558,180.195,66.519,169.087,55.411z" fill="#a7dadb"/></g><g transform="matrix(0.11718759685754776 0 0 0.11718759685754776 314 109)" id="L1_4"><path d="m255.824219 290.21875c8.289062 0 15.003906-6.71875 15.003906-15.003906v-18.378906c0-8.285157-6.714844-15-15.003906-15-8.285157 0-15 6.714843-15 15v18.378906c0 8.285156 6.714843 15.003906 15 15.003906zm0 0" fill="#a7dadb"/><path d="m36.675781 149.875c2.933594 2.9375 6.777344 4.40625 10.621094 4.40625 3.835937 0 7.667969-1.460938 10.597656-4.382812 5.863281-5.851563 5.875-15.351563.023438-21.21875l-32.015625-32.085938c-5.851563-5.863281-15.351563-5.878906-21.214844-.023438-5.863281 5.851563-5.875 15.351563-.023438 21.21875zm0 0" fill="#a7dadb"/><path d="m464.035156 154.378906c3.921875 0 7.839844-1.527344 10.785156-4.570312l31.914063-32.988282c5.761719-5.953124 5.605469-15.449218-.351563-21.210937-5.953124-5.765625-15.453124-5.605469-21.214843.351563l-31.914063 32.984374c-5.761718 5.957032-5.601562 15.453126.351563 21.214844 2.914062 2.816406 6.671875 4.21875 10.429687 4.21875zm0 0" fill="#a7dadb"/><path d="m255.824219 75.3125c8.289062 0 15.003906-6.71875 15.003906-15.003906v-44.804688c0-8.285156-6.714844-15.003906-15.003906-15.003906-8.285157 0-15 6.71875-15 15.003906v44.804688c0 8.285156 6.714843 15.003906 15 15.003906zm0 0" fill="#a7dadb"/><path d="m509.921875 275.125c3.113281-5.234375 2.683594-11.976562-1.003906-16.816406-2.144531-2.835938-29.332031-38.382813-72.9375-74.328125-26.300781-21.675781-53.152344-38.984375-79.804688-51.449219-33.898437-15.847656-67.601562-23.882812-100.175781-23.882812-32.578125 0-66.28125 8.035156-100.179688 23.882812-26.65625 12.464844-53.503906 29.773438-79.804687 51.449219-44.488281 36.671875-71.910156 72.953125-73.054687 74.480469-3.949219 5.265624-3.949219 12.746093 0 18.011718 1.144531 1.523438 28.566406 37.808594 73.054687 74.480469 26.300781 21.675781 53.148437 38.984375 79.804687 51.449219 33.898438 15.847656 67.601563 23.882812 100.179688 23.882812 32.574219 0 66.277344-8.035156 100.175781-23.882812 26.652344-12.464844 53.503907-29.773438 79.804688-51.449219 44.488281-36.671875 71.910156-72.953125 73.054687-74.480469.320313-.429687.613282-.886718.886719-1.347656zm-414.292969-68.421875c37.78125-31.046875 96.273438-68.050781 160.367188-68.050781 64.097656 0 122.589844 37.003906 160.371094 68.050781 27.1875 22.339844 47.902343 44.925781 59.164062 58.125-6.875 3.691406-13.996094 5.054687-21.527344 4.125-11.964844-1.484375-22.070312-8.386719-27.300781-12.644531-10.019531-9.875-20.375-19.171875-30.789063-27.644532-60.972656-49.597656-109.742187-60.007812-139.914062-60.007812-54.671875 0-106.265625 32.632812-139.917969 60.007812-10.542969 8.578126-21.027343 18-31.160156 28.015626-10.292969 9.699218-20.964844 13.707031-32.605469 12.273437-5.597656-.695313-10.78125-2.578125-15.257812-4.820313 11.386718-13.285156 31.851562-35.476562 58.570312-57.429687zm160.351563-6.351563c36.898437 0 66.917969 30.101563 66.917969 67.101563 0 37.003906-30.019532 67.105469-66.917969 67.105469-36.898438 0-66.917969-30.101563-66.917969-67.105469 0-37 30.019531-67.101563 66.917969-67.101563zm.019531 195.929688c-64.097656 0-122.589844-37.007812-160.371094-68.050781-12.191406-10.015625-23.074218-20.082031-32.394531-29.328125 15.226563-1.527344 29.683594-8.476563 42.429687-20.542969.078126-.074219.15625-.148437.230469-.226563 9.488281-9.378906 19.285157-18.191406 29.121094-26.191406 9.332031-7.59375 20.167969-15.640625 32.054687-23.121094-5.148437 11.84375-8.011718 24.910157-8.011718 38.632813 0 53.546875 43.480468 97.109375 96.921875 97.109375 53.445312 0 96.921875-43.5625 96.921875-97.109375 0-13.746094-2.871094-26.828125-8.03125-38.691406 10.136718 6.378906 20.847656 14.015625 32.113281 23.179687 9.835937 8 19.632813 16.8125 29.117187 26.191406.3125.308594.636719.601563.972657.882813 9.078125 7.527344 23.664062 16.917969 41.992187 19.523437-40.988281 40.695313-112.765625 97.742188-193.066406 97.742188zm0 0" fill="#a7dadb"/></g><g transform="matrix(0.9375 0 0 0.9375 195 45)" id="L1_5"><path d="m61 3h-30.184c-.414-1.161-1.514-2-2.816-2h-15c-4.269 0-7.767 3.36-7.989 7.574-2.587 2.603-4.011 6.055-4.011 9.727 0 3.905 1.665 7.643 4.567 10.255l5.433 4.889v3.011c-5.02 3.353-8 8.91-8 14.978v11.566h58v-52c1.103 0 2-.897 2-2v-4c0-1.103-.897-2-2-2zm-54.095 24.069c-2.482-2.233-3.905-5.429-3.905-8.768 0-3.151 1.227-6.114 3.455-8.342l.545-.545v-.414c0-3.309 2.691-6 6-6h15c.551 0 1 .448 1 1v2.007c0 1.333-.52 2.586-1.462 3.528-.942.94-2.193 1.459-3.525 1.459-.001 0-.003 0-.004 0-2.815-.003-5.789-.005-7.011-.002-.001 0-.003 0-.005 0-.531 0-1.03-.206-1.406-.581-.379-.378-.587-.88-.587-1.415 0-1.1.896-1.996 1.996-1.996h.004l-.004-2c-2.204 0-3.996 1.793-3.996 3.996 0 .301.041.594.105.881-1.312 1.01-2.105 2.575-2.105 4.265v4.892c-2.232.174-4 2.024-4 4.299 0 1.356.648 2.652 1.733 3.467l2.267 1.7v2.255zm22.087-2.683-1.992.996v3.618h-2c-1.103 0-2-.897-2-2h-2c0 2.206 1.794 4 4 4h1.448c-.173.298-.371.582-.621.832-.754.754-1.756 1.168-2.823 1.168-.001 0-.003 0-.004 0h-6v2h2v4h-.272c-2.137 0-4.146-.832-5.657-2.343l-.071-.071v-9.086l-3.066-2.3c-.585-.438-.934-1.137-.934-1.867 0-1.286 1.047-2.333 2.333-2.333h10.504l6 2h1.063c.035.465.081.938.092 1.386zm-15.992-7.386h8v2h-8zm14 3.613-4-1.333v-2.559l4-1.333zm2 .387v-6h2v6zm-2.158-7.668-5.004 1.668h-8.838v-.858c0-.943.391-1.826 1.056-2.457.042.046.073.099.117.143.753.751 1.754 1.165 2.819 1.165h.01c1.222-.002 4.193-.001 7.004.002h.006c.884 0 1.741-.168 2.54-.48.087.235.184.508.29.817zm-21.842 38.102c0-5.3 2.562-10.159 6.886-13.155 1.861 1.752 4.275 2.721 6.842 2.721h.938c3.339 2.334 5.334 6.125 5.334 10.211v9.789h-12v-10.172c0-2.092-.814-4.058-2.293-5.535l-1.414 1.414c1.101 1.101 1.707 2.564 1.707 4.121v10.172h-6zm54 9.566h-32v-9.789c0-4.663-2.243-8.986-6-11.705v-4.506h1.999.006c1.6 0 3.104-.622 4.235-1.753 1.135-1.133 1.76-2.642 1.76-4.247v-2.382l2-1v-.618c0-.645-.033-1.318-.081-2h.081c1.103 0 2-.897 2-2v-6c0-1.103-.897-2-2-2h-2.158c-.205-.613-.387-1.116-.529-1.492.202-.158.397-.326.583-.508h30.104zm2-52h-30.679c.44-.925.679-1.939.679-2.993v-1.007h30z" fill="#a7dadb"/><path d="m49 23h-2v2h-6v-4h6v-2h-6v-4h6v2h2v-4h-12v2h2v10h-2v2h12z" fill="#a7dadb"/><path d="m35 37h8v-2h-8v-4h8v-2h-10v14h2z" fill="#a7dadb"/><path d="m45 43h2v-6h4c2.206 0 4-1.794 4-4s-1.794-4-4-4h-6zm2-12h4c1.103 0 2 .897 2 2s-.897 2-2 2h-4z" fill="#a7dadb"/><path d="m31 51h26v-6h-26zm2-4h22v2h-22z" fill="#a7dadb"/><path d="m31 53h6v2h-6z" fill="#a7dadb"/><path d="m31 57h6v2h-6z" fill="#a7dadb"/><path d="m41 53h6v2h-6z" fill="#a7dadb"/><path d="m41 57h6v2h-6z" fill="#a7dadb"/><path d="m51 53h6v2h-6z" fill="#a7dadb"/><path d="m51 57h6v2h-6z" fill="#a7dadb"/></g><g transform="matrix(0.6000000238418579 0 0 0.6000000238418579 286 277)" id="L1_6"><path d="m60 28.333v-5h-20v25h20v-5h-15v-5h11.667v-5h-11.667v-5z" fill="#a7dadb"/><path d="m52.5 53.333h17.5v5h-17.5z" fill="#a7dadb"/><path d="m30 53.333h17.5v5h-17.5z" fill="#a7dadb"/><path d="m60 63.333h10v5h-10z" fill="#a7dadb"/><path d="m45 63.333h10v5h-10z" fill="#a7dadb"/><path d="m30 63.333h10v5h-10z" fill="#a7dadb"/><path d="m30 73.333h6.25v5h-6.25z" fill="#a7dadb"/><path d="m41.25 73.333h6.25v5h-6.25z" fill="#a7dadb"/><path d="m52.5 73.333h6.25v5h-6.25z" fill="#a7dadb"/><path d="m63.75 73.333h6.25v5h-6.25z" fill="#a7dadb"/><path d="m90 10h-80v6.667h6.667v73.333h66.666v-73.333h6.667zm-13.333 73.333h-53.334v-66.666h53.334z" fill="#a7dadb"/></g><g transform="matrix(0.9375 0 0 0.9375 44 183)" id="L1_7"><path d="M56.81,30.68,48.92,11.62A1,1,0,0,0,48,11H38a1,1,0,0,0-.89,1.45l2,4A1,1,0,0,0,40,17h5l4.22,10.18A14.75,14.75,0,0,0,47,27,15.08,15.08,0,0,0,32.87,37H31.13A15.08,15.08,0,0,0,17,27a14.75,14.75,0,0,0-2.21.18L19,17h5a1,1,0,0,0,.89-.55l2-4A1,1,0,0,0,26,11H16a1,1,0,0,0-.92.62L7.19,30.68A15,15,0,0,0,2,42H4a13,13,0,0,1,25-5h-2.2A11,11,0,1,0,28,43h8.1a11,11,0,1,0,1.16-6H35a13,13,0,0,1,25,5h2A15,15,0,0,0,56.81,30.68Zm-46.62-2L16.67,13h7.71l-1,2h-5a1,1,0,0,0-.92.62l-5,12.11A14.72,14.72,0,0,0,10.19,28.65ZM17,51a9,9,0,1,1,9-9A9,9,0,0,1,17,51ZM47,33a9,9,0,1,1-9,9A9,9,0,0,1,47,33ZM36.43,39a10.24,10.24,0,0,0-.38,2H28a10.24,10.24,0,0,0-.38-2ZM51.6,27.73l-5-12.11a1,1,0,0,0-.92-.62h-5l-1-2h7.71l6.48,15.65A14.72,14.72,0,0,0,51.6,27.73Z" fill="#a7dadb"/><path d="M52,42h2a7,7,0,0,0-7-7v2A5,5,0,0,1,52,42Z" fill="#a7dadb"/><path d="M17,35v2a5,5,0,0,1,5,5h2A7,7,0,0,0,17,35Z" fill="#a7dadb"/></g></defs><g fi:class="KUsePattern"><pattern id="pattern_L1_1" width="350" height="350" patternUnits="userSpaceOnUse"><use xlink:href="#L1_1" x="-350" y="-350"/><use xlink:href="#L1_1" x="0" y="-350"/><use xlink:href="#L1_1" x="350" y="-350"/><use xlink:href="#L1_1" x="-350" y="0"/><use xlink:href="#L1_1" x="0" y="0"/><use xlink:href="#L1_1" x="350" y="0"/><use xlink:href="#L1_1" x="-350" y="350"/><use xlink:href="#L1_1" x="0" y="350"/><use xlink:href="#L1_1" x="350" y="350"/></pattern><rect x="0" y="0" width="100%" height="100%" fill="url(#pattern_L1_1)"/></g><g fi:class="KUsePattern"><pattern id="pattern_L1_2" width="350" height="350" patternUnits="userSpaceOnUse"><use xlink:href="#L1_2" x="-350" y="-350"/><use xlink:href="#L1_2" x="0" y="-350"/><use xlink:href="#L1_2" x="350" y="-350"/><use xlink:href="#L1_2" x="-350" y="0"/><use xlink:href="#L1_2" x="0" y="0"/><use xlink:href="#L1_2" x="350" y="0"/><use xlink:href="#L1_2" x="-350" y="350"/><use xlink:href="#L1_2" x="0" y="350"/><use xlink:href="#L1_2" x="350" y="350"/></pattern><rect x="0" y="0" width="100%" height="100%" fill="url(#pattern_L1_2)"/></g><g fi:class="KUsePattern"><pattern id="pattern_L1_3" width="350" height="350" patternUnits="userSpaceOnUse"><use xlink:href="#L1_3" x="-350" y="-350"/><use xlink:href="#L1_3" x="0" y="-350"/><use xlink:href="#L1_3" x="350" y="-350"/><use xlink:href="#L1_3" x="-350" y="0"/><use xlink:href="#L1_3" x="0" y="0"/><use xlink:href="#L1_3" x="350" y="0"/><use xlink:href="#L1_3" x="-350" y="350"/><use xlink:href="#L1_3" x="0" y="350"/><use xlink:href="#L1_3" x="350" y="350"/></pattern><rect x="0" y="0" width="100%" height="100%" fill="url(#pattern_L1_3)"/></g><g fi:class="KUsePattern"><pattern id="pattern_L1_4" width="350" height="350" patternUnits="userSpaceOnUse"><use xlink:href="#L1_4" x="-350" y="-350"/><use xlink:href="#L1_4" x="0" y="-350"/><use xlink:href="#L1_4" x="350" y="-350"/><use xlink:href="#L1_4" x="-350" y="0"/><use xlink:href="#L1_4" x="0" y="0"/><use xlink:href="#L1_4" x="350" y="0"/><use xlink:href="#L1_4" x="-350" y="350"/><use xlink:href="#L1_4" x="0" y="350"/><use xlink:href="#L1_4" x="350" y="350"/></pattern><rect x="0" y="0" width="100%" height="100%" fill="url(#pattern_L1_4)"/></g><g fi:class="KUsePattern"><pattern id="pattern_L1_5" width="350" height="350" patternUnits="userSpaceOnUse"><use xlink:href="#L1_5" x="-350" y="-350"/><use xlink:href="#L1_5" x="0" y="-350"/><use xlink:href="#L1_5" x="350" y="-350"/><use xlink:href="#L1_5" x="-350" y="0"/><use xlink:href="#L1_5" x="0" y="0"/><use xlink:href="#L1_5" x="350" y="0"/><use xlink:href="#L1_5" x="-350" y="350"/><use xlink:href="#L1_5" x="0" y="350"/><use xlink:href="#L1_5" x="350" y="350"/></pattern><rect x="0" y="0" width="100%" height="100%" fill="url(#pattern_L1_5)"/></g><g fi:class="KUsePattern"><pattern id="pattern_L1_6" width="350" height="350" patternUnits="userSpaceOnUse"><use xlink:href="#L1_6" x="-350" y="-350"/><use xlink:href="#L1_6" x="0" y="-350"/><use xlink:href="#L1_6" x="350" y="-350"/><use xlink:href="#L1_6" x="-350" y="0"/><use xlink:href="#L1_6" x="0" y="0"/><use xlink:href="#L1_6" x="350" y="0"/><use xlink:href="#L1_6" x="-350" y="350"/><use xlink:href="#L1_6" x="0" y="350"/><use xlink:href="#L1_6" x="350" y="350"/></pattern><rect x="0" y="0" width="100%" height="100%" fill="url(#pattern_L1_6)"/></g><g fi:class="KUsePattern"><pattern id="pattern_L1_7" width="350" height="350" patternUnits="userSpaceOnUse"><use xlink:href="#L1_7" x="-350" y="-350"/><use xlink:href="#L1_7" x="0" y="-350"/><use xlink:href="#L1_7" x="350" y="-350"/><use xlink:href="#L1_7" x="-350" y="0"/><use xlink:href="#L1_7" x="0" y="0"/><use xlink:href="#L1_7" x="350" y="0"/><use xlink:href="#L1_7" x="-350" y="350"/><use xlink:href="#L1_7" x="0" y="350"/><use xlink:href="#L1_7" x="350" y="350"/></pattern><rect x="0" y="0" width="100%" height="100%" fill="url(#pattern_L1_7)"/></g></svg>